<svg width="1062" height="538" viewBox="0 0 1062 538" fill="none" xmlns="http://www.w3.org/2000/svg">
  <g filter="url(#filter0_bd_300_39)">
    <mask id="path-1-outside-1_300_39" maskUnits="userSpaceOnUse" x="64" y="20" width="934" height="410" fill="black">
      <rect fill="white" x="64" y="20" width="934" height="410"/>
      <path fill-rule="evenodd" clip-rule="evenodd"
            d="M673.196 297.118V152.882C673.196 128.938 667.26 106.91 655.388 86.7972C643.707 66.493 627.718 50.4986 607.42 38.8141C587.314 26.938 565.388 21 541.644 21C517.899 21 495.878 26.938 475.58 38.8141C455.474 50.4986 439.484 66.493 427.612 86.7972C415.931 106.91 410.091 128.938 410.091 152.882V297.118C410.091 321.062 415.931 343.186 427.612 363.49C439.484 383.603 455.474 399.597 475.58 411.473C495.878 423.158 517.899 429 541.644 429C565.388 429 587.314 423.158 607.42 411.473C627.718 399.597 643.707 383.603 655.388 363.49C667.26 343.186 673.196 321.062 673.196 297.118ZM502.293 320.104C498.271 313.017 496.261 305.355 496.261 297.118V152.882C496.261 144.645 498.271 137.079 502.293 130.183C506.505 123.096 512.058 117.541 518.952 113.518C525.846 109.304 533.409 107.197 541.643 107.197C549.878 107.197 557.441 109.304 564.335 113.518C571.229 117.541 576.686 123.096 580.707 130.183C584.92 137.079 587.026 144.645 587.026 152.882V297.118C587.026 305.355 584.92 313.017 580.707 320.104C576.686 327 571.229 332.555 564.335 336.769C557.441 340.792 549.878 342.803 541.643 342.803C533.409 342.803 525.846 340.792 518.952 336.769C512.058 332.555 506.505 327 502.293 320.104Z"/>
      <path
        d="M218.67 273.845C212.159 270.014 204.978 268.099 197.127 268.099H172.299L247.393 84.2113C249.882 78.6564 251.127 72.9099 251.127 66.9719C251.127 59.1184 249.212 51.9353 245.382 45.4226C241.553 38.7184 236.287 33.4508 229.585 29.6198C223.074 25.7888 215.893 23.8733 208.042 23.8733C199.234 23.8733 191.287 26.2677 184.202 31.0564C177.117 35.8451 171.851 42.0705 168.404 49.7325L68.1596 294.82C66.0532 300.183 65 305.642 65 311.197C65 319.051 66.9149 326.33 70.7447 333.034C74.5744 339.547 79.7446 344.718 86.2553 348.549C92.9574 352.38 100.234 354.296 108.085 354.296C108.851 354.296 109.61 354.277 110.363 354.239C111.13 354.277 111.902 354.296 112.681 354.296H197.127C204.978 354.296 212.159 352.38 218.67 348.549C225.372 344.718 230.638 339.547 234.468 333.034C238.297 326.33 240.212 319.051 240.212 311.197C240.212 303.344 238.297 296.161 234.468 289.648C230.638 282.944 225.372 277.676 218.67 273.845Z"/>
      <path
        d="M263.191 117.254C259.361 123.766 257.446 130.949 257.446 138.803V383.028C257.446 390.882 259.361 398.161 263.191 404.865C267.021 411.378 272.191 416.549 278.701 420.38C285.404 424.211 292.68 426.127 300.531 426.127C308.382 426.127 315.563 424.211 322.074 420.38C328.776 416.549 334.042 411.378 337.872 404.865C341.701 398.161 343.616 390.882 343.616 383.028V138.803C343.616 130.949 341.701 123.766 337.872 117.254C334.042 110.549 328.776 105.282 322.074 101.451C315.563 97.6198 308.382 95.7043 300.531 95.7043C292.68 95.7043 285.404 97.6198 278.701 101.451C272.191 105.282 267.021 110.549 263.191 117.254Z"/>
      <path
        d="M872.053 273.845C865.543 270.014 858.362 268.099 850.511 268.099H825.682L900.777 84.2113C903.266 78.6564 904.511 72.9099 904.511 66.9719C904.511 59.1184 902.596 51.9353 898.766 45.4226C894.936 38.7184 889.67 33.4508 882.968 29.6198C876.458 25.7888 869.277 23.8733 861.426 23.8733C852.617 23.8733 844.671 26.2677 837.586 31.0564C830.5 35.8451 825.235 42.0705 821.788 49.7325L721.543 294.82C719.437 300.183 718.384 305.642 718.384 311.197C718.384 319.051 720.299 326.33 724.128 333.034C727.958 339.547 733.128 344.718 739.639 348.549C746.341 352.38 753.618 354.296 761.469 354.296C762.235 354.296 762.994 354.277 763.747 354.239C764.514 354.277 765.286 354.296 766.064 354.296H850.511C858.362 354.296 865.543 352.38 872.053 348.549C878.756 344.718 884.022 339.547 887.851 333.034C891.681 326.33 893.596 319.051 893.596 311.197C893.596 303.344 891.681 296.161 887.851 289.648C884.022 282.944 878.756 277.676 872.053 273.845Z"/>
      <path
        d="M916.575 117.254C912.745 123.766 910.83 130.949 910.83 138.803V383.028C910.83 390.882 912.745 398.161 916.575 404.865C920.404 411.378 925.575 416.549 932.085 420.38C938.787 424.211 946.064 426.127 953.915 426.127C961.766 426.127 968.947 424.211 975.457 420.38C982.16 416.549 987.426 411.378 991.255 404.865C995.085 398.161 997 390.882 997 383.028V138.803C997 130.949 995.085 123.766 991.255 117.254C987.426 110.549 982.16 105.282 975.457 101.451C968.947 97.6198 961.766 95.7043 953.915 95.7043C946.064 95.7043 938.787 97.6198 932.085 101.451C925.575 105.282 920.404 110.549 916.575 117.254Z"/>
    </mask>
    <path fill-rule="evenodd" clip-rule="evenodd"
          d="M673.196 297.118V152.882C673.196 128.938 667.26 106.91 655.388 86.7972C643.707 66.493 627.718 50.4986 607.42 38.8141C587.314 26.938 565.388 21 541.644 21C517.899 21 495.878 26.938 475.58 38.8141C455.474 50.4986 439.484 66.493 427.612 86.7972C415.931 106.91 410.091 128.938 410.091 152.882V297.118C410.091 321.062 415.931 343.186 427.612 363.49C439.484 383.603 455.474 399.597 475.58 411.473C495.878 423.158 517.899 429 541.644 429C565.388 429 587.314 423.158 607.42 411.473C627.718 399.597 643.707 383.603 655.388 363.49C667.26 343.186 673.196 321.062 673.196 297.118ZM502.293 320.104C498.271 313.017 496.261 305.355 496.261 297.118V152.882C496.261 144.645 498.271 137.079 502.293 130.183C506.505 123.096 512.058 117.541 518.952 113.518C525.846 109.304 533.409 107.197 541.643 107.197C549.878 107.197 557.441 109.304 564.335 113.518C571.229 117.541 576.686 123.096 580.707 130.183C584.92 137.079 587.026 144.645 587.026 152.882V297.118C587.026 305.355 584.92 313.017 580.707 320.104C576.686 327 571.229 332.555 564.335 336.769C557.441 340.792 549.878 342.803 541.643 342.803C533.409 342.803 525.846 340.792 518.952 336.769C512.058 332.555 506.505 327 502.293 320.104Z"
          fill="url(#paint0_radial_300_39)" shape-rendering="crispEdges"/>
    <path
      d="M218.67 273.845C212.159 270.014 204.978 268.099 197.127 268.099H172.299L247.393 84.2113C249.882 78.6564 251.127 72.9099 251.127 66.9719C251.127 59.1184 249.212 51.9353 245.382 45.4226C241.553 38.7184 236.287 33.4508 229.585 29.6198C223.074 25.7888 215.893 23.8733 208.042 23.8733C199.234 23.8733 191.287 26.2677 184.202 31.0564C177.117 35.8451 171.851 42.0705 168.404 49.7325L68.1596 294.82C66.0532 300.183 65 305.642 65 311.197C65 319.051 66.9149 326.33 70.7447 333.034C74.5744 339.547 79.7446 344.718 86.2553 348.549C92.9574 352.38 100.234 354.296 108.085 354.296C108.851 354.296 109.61 354.277 110.363 354.239C111.13 354.277 111.902 354.296 112.681 354.296H197.127C204.978 354.296 212.159 352.38 218.67 348.549C225.372 344.718 230.638 339.547 234.468 333.034C238.297 326.33 240.212 319.051 240.212 311.197C240.212 303.344 238.297 296.161 234.468 289.648C230.638 282.944 225.372 277.676 218.67 273.845Z"
      fill="url(#paint1_radial_300_39)" shape-rendering="crispEdges"/>
    <path
      d="M263.191 117.254C259.361 123.766 257.446 130.949 257.446 138.803V383.028C257.446 390.882 259.361 398.161 263.191 404.865C267.021 411.378 272.191 416.549 278.701 420.38C285.404 424.211 292.68 426.127 300.531 426.127C308.382 426.127 315.563 424.211 322.074 420.38C328.776 416.549 334.042 411.378 337.872 404.865C341.701 398.161 343.616 390.882 343.616 383.028V138.803C343.616 130.949 341.701 123.766 337.872 117.254C334.042 110.549 328.776 105.282 322.074 101.451C315.563 97.6198 308.382 95.7043 300.531 95.7043C292.68 95.7043 285.404 97.6198 278.701 101.451C272.191 105.282 267.021 110.549 263.191 117.254Z"
      fill="url(#paint2_radial_300_39)" shape-rendering="crispEdges"/>
    <path
      d="M872.053 273.845C865.543 270.014 858.362 268.099 850.511 268.099H825.682L900.777 84.2113C903.266 78.6564 904.511 72.9099 904.511 66.9719C904.511 59.1184 902.596 51.9353 898.766 45.4226C894.936 38.7184 889.67 33.4508 882.968 29.6198C876.458 25.7888 869.277 23.8733 861.426 23.8733C852.617 23.8733 844.671 26.2677 837.586 31.0564C830.5 35.8451 825.235 42.0705 821.788 49.7325L721.543 294.82C719.437 300.183 718.384 305.642 718.384 311.197C718.384 319.051 720.299 326.33 724.128 333.034C727.958 339.547 733.128 344.718 739.639 348.549C746.341 352.38 753.618 354.296 761.469 354.296C762.235 354.296 762.994 354.277 763.747 354.239C764.514 354.277 765.286 354.296 766.064 354.296H850.511C858.362 354.296 865.543 352.38 872.053 348.549C878.756 344.718 884.022 339.547 887.851 333.034C891.681 326.33 893.596 319.051 893.596 311.197C893.596 303.344 891.681 296.161 887.851 289.648C884.022 282.944 878.756 277.676 872.053 273.845Z"
      fill="url(#paint3_radial_300_39)" shape-rendering="crispEdges"/>
    <path
      d="M916.575 117.254C912.745 123.766 910.83 130.949 910.83 138.803V383.028C910.83 390.882 912.745 398.161 916.575 404.865C920.404 411.378 925.575 416.549 932.085 420.38C938.787 424.211 946.064 426.127 953.915 426.127C961.766 426.127 968.947 424.211 975.457 420.38C982.16 416.549 987.426 411.378 991.255 404.865C995.085 398.161 997 390.882 997 383.028V138.803C997 130.949 995.085 123.766 991.255 117.254C987.426 110.549 982.16 105.282 975.457 101.451C968.947 97.6198 961.766 95.7043 953.915 95.7043C946.064 95.7043 938.787 97.6198 932.085 101.451C925.575 105.282 920.404 110.549 916.575 117.254Z"
      fill="url(#paint4_radial_300_39)" shape-rendering="crispEdges"/>
    <path fill-rule="evenodd" clip-rule="evenodd"
          d="M673.196 297.118V152.882C673.196 128.938 667.26 106.91 655.388 86.7972C643.707 66.493 627.718 50.4986 607.42 38.8141C587.314 26.938 565.388 21 541.644 21C517.899 21 495.878 26.938 475.58 38.8141C455.474 50.4986 439.484 66.493 427.612 86.7972C415.931 106.91 410.091 128.938 410.091 152.882V297.118C410.091 321.062 415.931 343.186 427.612 363.49C439.484 383.603 455.474 399.597 475.58 411.473C495.878 423.158 517.899 429 541.644 429C565.388 429 587.314 423.158 607.42 411.473C627.718 399.597 643.707 383.603 655.388 363.49C667.26 343.186 673.196 321.062 673.196 297.118ZM502.293 320.104C498.271 313.017 496.261 305.355 496.261 297.118V152.882C496.261 144.645 498.271 137.079 502.293 130.183C506.505 123.096 512.058 117.541 518.952 113.518C525.846 109.304 533.409 107.197 541.643 107.197C549.878 107.197 557.441 109.304 564.335 113.518C571.229 117.541 576.686 123.096 580.707 130.183C584.92 137.079 587.026 144.645 587.026 152.882V297.118C587.026 305.355 584.92 313.017 580.707 320.104C576.686 327 571.229 332.555 564.335 336.769C557.441 340.792 549.878 342.803 541.643 342.803C533.409 342.803 525.846 340.792 518.952 336.769C512.058 332.555 506.505 327 502.293 320.104Z"
          stroke="url(#paint5_linear_300_39)" stroke-width="2" style="mix-blend-mode:overlay"
          shape-rendering="crispEdges" mask="url(#path-1-outside-1_300_39)"/>
    <path fill-rule="evenodd" clip-rule="evenodd"
          d="M673.196 297.118V152.882C673.196 128.938 667.26 106.91 655.388 86.7972C643.707 66.493 627.718 50.4986 607.42 38.8141C587.314 26.938 565.388 21 541.644 21C517.899 21 495.878 26.938 475.58 38.8141C455.474 50.4986 439.484 66.493 427.612 86.7972C415.931 106.91 410.091 128.938 410.091 152.882V297.118C410.091 321.062 415.931 343.186 427.612 363.49C439.484 383.603 455.474 399.597 475.58 411.473C495.878 423.158 517.899 429 541.644 429C565.388 429 587.314 423.158 607.42 411.473C627.718 399.597 643.707 383.603 655.388 363.49C667.26 343.186 673.196 321.062 673.196 297.118ZM502.293 320.104C498.271 313.017 496.261 305.355 496.261 297.118V152.882C496.261 144.645 498.271 137.079 502.293 130.183C506.505 123.096 512.058 117.541 518.952 113.518C525.846 109.304 533.409 107.197 541.643 107.197C549.878 107.197 557.441 109.304 564.335 113.518C571.229 117.541 576.686 123.096 580.707 130.183C584.92 137.079 587.026 144.645 587.026 152.882V297.118C587.026 305.355 584.92 313.017 580.707 320.104C576.686 327 571.229 332.555 564.335 336.769C557.441 340.792 549.878 342.803 541.643 342.803C533.409 342.803 525.846 340.792 518.952 336.769C512.058 332.555 506.505 327 502.293 320.104Z"
          stroke="white" stroke-opacity="0.2" stroke-width="2" shape-rendering="crispEdges"
          mask="url(#path-1-outside-1_300_39)"/>
    <path
      d="M218.67 273.845C212.159 270.014 204.978 268.099 197.127 268.099H172.299L247.393 84.2113C249.882 78.6564 251.127 72.9099 251.127 66.9719C251.127 59.1184 249.212 51.9353 245.382 45.4226C241.553 38.7184 236.287 33.4508 229.585 29.6198C223.074 25.7888 215.893 23.8733 208.042 23.8733C199.234 23.8733 191.287 26.2677 184.202 31.0564C177.117 35.8451 171.851 42.0705 168.404 49.7325L68.1596 294.82C66.0532 300.183 65 305.642 65 311.197C65 319.051 66.9149 326.33 70.7447 333.034C74.5744 339.547 79.7446 344.718 86.2553 348.549C92.9574 352.38 100.234 354.296 108.085 354.296C108.851 354.296 109.61 354.277 110.363 354.239C111.13 354.277 111.902 354.296 112.681 354.296H197.127C204.978 354.296 212.159 352.38 218.67 348.549C225.372 344.718 230.638 339.547 234.468 333.034C238.297 326.33 240.212 319.051 240.212 311.197C240.212 303.344 238.297 296.161 234.468 289.648C230.638 282.944 225.372 277.676 218.67 273.845Z"
      stroke="url(#paint6_linear_300_39)" stroke-width="2" style="mix-blend-mode:overlay" shape-rendering="crispEdges"
      mask="url(#path-1-outside-1_300_39)"/>
    <path
      d="M218.67 273.845C212.159 270.014 204.978 268.099 197.127 268.099H172.299L247.393 84.2113C249.882 78.6564 251.127 72.9099 251.127 66.9719C251.127 59.1184 249.212 51.9353 245.382 45.4226C241.553 38.7184 236.287 33.4508 229.585 29.6198C223.074 25.7888 215.893 23.8733 208.042 23.8733C199.234 23.8733 191.287 26.2677 184.202 31.0564C177.117 35.8451 171.851 42.0705 168.404 49.7325L68.1596 294.82C66.0532 300.183 65 305.642 65 311.197C65 319.051 66.9149 326.33 70.7447 333.034C74.5744 339.547 79.7446 344.718 86.2553 348.549C92.9574 352.38 100.234 354.296 108.085 354.296C108.851 354.296 109.61 354.277 110.363 354.239C111.13 354.277 111.902 354.296 112.681 354.296H197.127C204.978 354.296 212.159 352.38 218.67 348.549C225.372 344.718 230.638 339.547 234.468 333.034C238.297 326.33 240.212 319.051 240.212 311.197C240.212 303.344 238.297 296.161 234.468 289.648C230.638 282.944 225.372 277.676 218.67 273.845Z"
      stroke="white" stroke-opacity="0.2" stroke-width="2" shape-rendering="crispEdges"
      mask="url(#path-1-outside-1_300_39)"/>
    <path
      d="M263.191 117.254C259.361 123.766 257.446 130.949 257.446 138.803V383.028C257.446 390.882 259.361 398.161 263.191 404.865C267.021 411.378 272.191 416.549 278.701 420.38C285.404 424.211 292.68 426.127 300.531 426.127C308.382 426.127 315.563 424.211 322.074 420.38C328.776 416.549 334.042 411.378 337.872 404.865C341.701 398.161 343.616 390.882 343.616 383.028V138.803C343.616 130.949 341.701 123.766 337.872 117.254C334.042 110.549 328.776 105.282 322.074 101.451C315.563 97.6198 308.382 95.7043 300.531 95.7043C292.68 95.7043 285.404 97.6198 278.701 101.451C272.191 105.282 267.021 110.549 263.191 117.254Z"
      stroke="url(#paint7_linear_300_39)" stroke-width="2" style="mix-blend-mode:overlay" shape-rendering="crispEdges"
      mask="url(#path-1-outside-1_300_39)"/>
    <path
      d="M263.191 117.254C259.361 123.766 257.446 130.949 257.446 138.803V383.028C257.446 390.882 259.361 398.161 263.191 404.865C267.021 411.378 272.191 416.549 278.701 420.38C285.404 424.211 292.68 426.127 300.531 426.127C308.382 426.127 315.563 424.211 322.074 420.38C328.776 416.549 334.042 411.378 337.872 404.865C341.701 398.161 343.616 390.882 343.616 383.028V138.803C343.616 130.949 341.701 123.766 337.872 117.254C334.042 110.549 328.776 105.282 322.074 101.451C315.563 97.6198 308.382 95.7043 300.531 95.7043C292.68 95.7043 285.404 97.6198 278.701 101.451C272.191 105.282 267.021 110.549 263.191 117.254Z"
      stroke="white" stroke-opacity="0.2" stroke-width="2" shape-rendering="crispEdges"
      mask="url(#path-1-outside-1_300_39)"/>
    <path
      d="M872.053 273.845C865.543 270.014 858.362 268.099 850.511 268.099H825.682L900.777 84.2113C903.266 78.6564 904.511 72.9099 904.511 66.9719C904.511 59.1184 902.596 51.9353 898.766 45.4226C894.936 38.7184 889.67 33.4508 882.968 29.6198C876.458 25.7888 869.277 23.8733 861.426 23.8733C852.617 23.8733 844.671 26.2677 837.586 31.0564C830.5 35.8451 825.235 42.0705 821.788 49.7325L721.543 294.82C719.437 300.183 718.384 305.642 718.384 311.197C718.384 319.051 720.299 326.33 724.128 333.034C727.958 339.547 733.128 344.718 739.639 348.549C746.341 352.38 753.618 354.296 761.469 354.296C762.235 354.296 762.994 354.277 763.747 354.239C764.514 354.277 765.286 354.296 766.064 354.296H850.511C858.362 354.296 865.543 352.38 872.053 348.549C878.756 344.718 884.022 339.547 887.851 333.034C891.681 326.33 893.596 319.051 893.596 311.197C893.596 303.344 891.681 296.161 887.851 289.648C884.022 282.944 878.756 277.676 872.053 273.845Z"
      stroke="url(#paint8_linear_300_39)" stroke-width="2" style="mix-blend-mode:overlay" shape-rendering="crispEdges"
      mask="url(#path-1-outside-1_300_39)"/>
    <path
      d="M872.053 273.845C865.543 270.014 858.362 268.099 850.511 268.099H825.682L900.777 84.2113C903.266 78.6564 904.511 72.9099 904.511 66.9719C904.511 59.1184 902.596 51.9353 898.766 45.4226C894.936 38.7184 889.67 33.4508 882.968 29.6198C876.458 25.7888 869.277 23.8733 861.426 23.8733C852.617 23.8733 844.671 26.2677 837.586 31.0564C830.5 35.8451 825.235 42.0705 821.788 49.7325L721.543 294.82C719.437 300.183 718.384 305.642 718.384 311.197C718.384 319.051 720.299 326.33 724.128 333.034C727.958 339.547 733.128 344.718 739.639 348.549C746.341 352.38 753.618 354.296 761.469 354.296C762.235 354.296 762.994 354.277 763.747 354.239C764.514 354.277 765.286 354.296 766.064 354.296H850.511C858.362 354.296 865.543 352.38 872.053 348.549C878.756 344.718 884.022 339.547 887.851 333.034C891.681 326.33 893.596 319.051 893.596 311.197C893.596 303.344 891.681 296.161 887.851 289.648C884.022 282.944 878.756 277.676 872.053 273.845Z"
      stroke="white" stroke-opacity="0.2" stroke-width="2" shape-rendering="crispEdges"
      mask="url(#path-1-outside-1_300_39)"/>
    <path
      d="M916.575 117.254C912.745 123.766 910.83 130.949 910.83 138.803V383.028C910.83 390.882 912.745 398.161 916.575 404.865C920.404 411.378 925.575 416.549 932.085 420.38C938.787 424.211 946.064 426.127 953.915 426.127C961.766 426.127 968.947 424.211 975.457 420.38C982.16 416.549 987.426 411.378 991.255 404.865C995.085 398.161 997 390.882 997 383.028V138.803C997 130.949 995.085 123.766 991.255 117.254C987.426 110.549 982.16 105.282 975.457 101.451C968.947 97.6198 961.766 95.7043 953.915 95.7043C946.064 95.7043 938.787 97.6198 932.085 101.451C925.575 105.282 920.404 110.549 916.575 117.254Z"
      stroke="url(#paint9_linear_300_39)" stroke-width="2" style="mix-blend-mode:overlay" shape-rendering="crispEdges"
      mask="url(#path-1-outside-1_300_39)"/>
    <path
      d="M916.575 117.254C912.745 123.766 910.83 130.949 910.83 138.803V383.028C910.83 390.882 912.745 398.161 916.575 404.865C920.404 411.378 925.575 416.549 932.085 420.38C938.787 424.211 946.064 426.127 953.915 426.127C961.766 426.127 968.947 424.211 975.457 420.38C982.16 416.549 987.426 411.378 991.255 404.865C995.085 398.161 997 390.882 997 383.028V138.803C997 130.949 995.085 123.766 991.255 117.254C987.426 110.549 982.16 105.282 975.457 101.451C968.947 97.6198 961.766 95.7043 953.915 95.7043C946.064 95.7043 938.787 97.6198 932.085 101.451C925.575 105.282 920.404 110.549 916.575 117.254Z"
      stroke="white" stroke-opacity="0.2" stroke-width="2" shape-rendering="crispEdges"
      mask="url(#path-1-outside-1_300_39)"/>
  </g>
  <defs>
    <filter id="filter0_bd_300_39" x="0" y="-40" width="1062" height="578" filterUnits="userSpaceOnUse"
            color-interpolation-filters="sRGB">
      <feFlood flood-opacity="0" result="BackgroundImageFix"/>
      <feGaussianBlur in="BackgroundImageFix" stdDeviation="30"/>
      <feComposite in2="SourceAlpha" operator="in" result="effect1_backgroundBlur_300_39"/>
      <feColorMatrix in="SourceAlpha" type="matrix" values="0 0 0 0 0 0 0 0 0 0 0 0 0 0 0 0 0 0 127 0"
                     result="hardAlpha"/>
      <feOffset dy="44"/>
      <feGaussianBlur stdDeviation="32"/>
      <feComposite in2="hardAlpha" operator="out"/>
      <feColorMatrix type="matrix" values="0 0 0 0 0.01575 0 0 0 0 0 0 0 0 0 0.1125 0 0 0 0.15 0"/>
      <feBlend mode="normal" in2="effect1_backgroundBlur_300_39" result="effect2_dropShadow_300_39"/>
      <feBlend mode="normal" in="SourceGraphic" in2="effect2_dropShadow_300_39" result="shape"/>
    </filter>
    <radialGradient id="paint0_radial_300_39" cx="0" cy="0" r="1" gradientUnits="userSpaceOnUse"
                    gradientTransform="translate(983 416.5) rotate(-157.487) scale(993.733 17264.6)">
      <stop stop-color="#7C4FFF"/>
      <stop offset="1" stop-color="#479EEE"/>
    </radialGradient>
    <radialGradient id="paint1_radial_300_39" cx="0" cy="0" r="1" gradientUnits="userSpaceOnUse"
                    gradientTransform="translate(983 416.5) rotate(-157.487) scale(993.733 17264.6)">
      <stop stop-color="#7C4FFF"/>
      <stop offset="1" stop-color="#479EEE"/>
    </radialGradient>
    <radialGradient id="paint2_radial_300_39" cx="0" cy="0" r="1" gradientUnits="userSpaceOnUse"
                    gradientTransform="translate(983 416.5) rotate(-157.487) scale(993.733 17264.6)">
      <stop stop-color="#7C4FFF"/>
      <stop offset="1" stop-color="#479EEE"/>
    </radialGradient>
    <radialGradient id="paint3_radial_300_39" cx="0" cy="0" r="1" gradientUnits="userSpaceOnUse"
                    gradientTransform="translate(983 416.5) rotate(-157.487) scale(993.733 17264.6)">
      <stop stop-color="#7C4FFF"/>
      <stop offset="1" stop-color="#479EEE"/>
    </radialGradient>
    <radialGradient id="paint4_radial_300_39" cx="0" cy="0" r="1" gradientUnits="userSpaceOnUse"
                    gradientTransform="translate(983 416.5) rotate(-157.487) scale(993.733 17264.6)">
      <stop stop-color="#7C4FFF"/>
      <stop offset="1" stop-color="#479EEE"/>
    </radialGradient>
    <linearGradient id="paint5_linear_300_39" x1="335.695" y1="31.5524" x2="446.044" y2="530.899"
                    gradientUnits="userSpaceOnUse">
      <stop offset="0.5" stop-color="white"/>
      <stop offset="1" stop-color="white" stop-opacity="0"/>
    </linearGradient>
    <linearGradient id="paint6_linear_300_39" x1="335.695" y1="31.5524" x2="446.044" y2="530.899"
                    gradientUnits="userSpaceOnUse">
      <stop offset="0.5" stop-color="white"/>
      <stop offset="1" stop-color="white" stop-opacity="0"/>
    </linearGradient>
    <linearGradient id="paint7_linear_300_39" x1="335.695" y1="31.5524" x2="446.044" y2="530.899"
                    gradientUnits="userSpaceOnUse">
      <stop offset="0.5" stop-color="white"/>
      <stop offset="1" stop-color="white" stop-opacity="0"/>
    </linearGradient>
    <linearGradient id="paint8_linear_300_39" x1="335.695" y1="31.5524" x2="446.044" y2="530.899"
                    gradientUnits="userSpaceOnUse">
      <stop offset="0.5" stop-color="white"/>
      <stop offset="1" stop-color="white" stop-opacity="0"/>
    </linearGradient>
    <linearGradient id="paint9_linear_300_39" x1="335.695" y1="31.5524" x2="446.044" y2="530.899"
                    gradientUnits="userSpaceOnUse">
      <stop offset="0.5" stop-color="white"/>
      <stop offset="1" stop-color="white" stop-opacity="0"/>
    </linearGradient>
  </defs>
</svg>
